<mxfile host="app.diagrams.net" agent="Mozilla/5.0 (Windows NT 10.0; Win64; x64) AppleWebKit/537.36 (KHTML, like Gecko) Chrome/136.0.0.0 Safari/537.36" version="26.2.14">
  <diagram id="C5RBs43oDa-KdzZeNtuy" name="Page-1">
    <mxGraphModel dx="1345" dy="1750" grid="1" gridSize="10" guides="1" tooltips="1" connect="1" arrows="1" fold="1" page="1" pageScale="1" pageWidth="827" pageHeight="1169" math="0" shadow="0">
      <root>
        <mxCell id="WIyWlLk6GJQsqaUBKTNV-0" />
        <mxCell id="WIyWlLk6GJQsqaUBKTNV-1" parent="WIyWlLk6GJQsqaUBKTNV-0" />
        <mxCell id="6Z-fEolWgcH76Msf51tz-0" value="Profesor" style="swimlane;fontStyle=1;align=center;verticalAlign=top;childLayout=stackLayout;horizontal=1;startSize=26;horizontalStack=0;resizeParent=1;resizeParentMax=0;resizeLast=0;collapsible=1;marginBottom=0;whiteSpace=wrap;html=1;" vertex="1" parent="WIyWlLk6GJQsqaUBKTNV-1">
          <mxGeometry x="70" y="250" width="200" height="98" as="geometry" />
        </mxCell>
        <mxCell id="6Z-fEolWgcH76Msf51tz-1" value="- DIAS_LIMITE : int =7" style="text;strokeColor=none;fillColor=none;align=left;verticalAlign=top;spacingLeft=4;spacingRight=4;overflow=hidden;rotatable=0;points=[[0,0.5],[1,0.5]];portConstraint=eastwest;whiteSpace=wrap;html=1;" vertex="1" parent="6Z-fEolWgcH76Msf51tz-0">
          <mxGeometry y="26" width="200" height="24" as="geometry" />
        </mxCell>
        <mxCell id="6Z-fEolWgcH76Msf51tz-2" value="" style="line;strokeWidth=1;fillColor=none;align=left;verticalAlign=middle;spacingTop=-1;spacingLeft=3;spacingRight=3;rotatable=0;labelPosition=right;points=[];portConstraint=eastwest;strokeColor=inherit;" vertex="1" parent="6Z-fEolWgcH76Msf51tz-0">
          <mxGeometry y="50" width="200" height="8" as="geometry" />
        </mxCell>
        <mxCell id="6Z-fEolWgcH76Msf51tz-3" value="&lt;div&gt;+ Profesor(ManejoReclamo sig)&lt;/div&gt;&lt;div&gt;&amp;nbsp;+ getManejo(int dias)&lt;/div&gt;" style="text;strokeColor=none;fillColor=none;align=left;verticalAlign=top;spacingLeft=4;spacingRight=4;overflow=hidden;rotatable=0;points=[[0,0.5],[1,0.5]];portConstraint=eastwest;whiteSpace=wrap;html=1;" vertex="1" parent="6Z-fEolWgcH76Msf51tz-0">
          <mxGeometry y="58" width="200" height="40" as="geometry" />
        </mxCell>
        <mxCell id="6Z-fEolWgcH76Msf51tz-4" value="Coordinacion" style="swimlane;fontStyle=1;align=center;verticalAlign=top;childLayout=stackLayout;horizontal=1;startSize=26;horizontalStack=0;resizeParent=1;resizeParentMax=0;resizeLast=0;collapsible=1;marginBottom=0;whiteSpace=wrap;html=1;" vertex="1" parent="WIyWlLk6GJQsqaUBKTNV-1">
          <mxGeometry x="297" y="251" width="200" height="92" as="geometry" />
        </mxCell>
        <mxCell id="6Z-fEolWgcH76Msf51tz-5" value="- DIAS_LIMITE : int =14" style="text;strokeColor=none;fillColor=none;align=left;verticalAlign=top;spacingLeft=4;spacingRight=4;overflow=hidden;rotatable=0;points=[[0,0.5],[1,0.5]];portConstraint=eastwest;whiteSpace=wrap;html=1;" vertex="1" parent="6Z-fEolWgcH76Msf51tz-4">
          <mxGeometry y="26" width="200" height="18" as="geometry" />
        </mxCell>
        <mxCell id="6Z-fEolWgcH76Msf51tz-6" value="" style="line;strokeWidth=1;fillColor=none;align=left;verticalAlign=middle;spacingTop=-1;spacingLeft=3;spacingRight=3;rotatable=0;labelPosition=right;points=[];portConstraint=eastwest;strokeColor=inherit;" vertex="1" parent="6Z-fEolWgcH76Msf51tz-4">
          <mxGeometry y="44" width="200" height="8" as="geometry" />
        </mxCell>
        <mxCell id="6Z-fEolWgcH76Msf51tz-7" value="&lt;div&gt;+ Profesor(ManejoReclamo sig)&lt;/div&gt;&lt;div&gt;&amp;nbsp;+ getManejo(int dias)&lt;/div&gt;" style="text;strokeColor=none;fillColor=none;align=left;verticalAlign=top;spacingLeft=4;spacingRight=4;overflow=hidden;rotatable=0;points=[[0,0.5],[1,0.5]];portConstraint=eastwest;whiteSpace=wrap;html=1;" vertex="1" parent="6Z-fEolWgcH76Msf51tz-4">
          <mxGeometry y="52" width="200" height="40" as="geometry" />
        </mxCell>
        <mxCell id="6Z-fEolWgcH76Msf51tz-8" value="Decanatura" style="swimlane;fontStyle=1;align=center;verticalAlign=top;childLayout=stackLayout;horizontal=1;startSize=26;horizontalStack=0;resizeParent=1;resizeParentMax=0;resizeLast=0;collapsible=1;marginBottom=0;whiteSpace=wrap;html=1;" vertex="1" parent="WIyWlLk6GJQsqaUBKTNV-1">
          <mxGeometry x="521" y="250" width="200" height="92" as="geometry" />
        </mxCell>
        <mxCell id="6Z-fEolWgcH76Msf51tz-9" value="- DIAS_LIMITE : int =30" style="text;strokeColor=none;fillColor=none;align=left;verticalAlign=top;spacingLeft=4;spacingRight=4;overflow=hidden;rotatable=0;points=[[0,0.5],[1,0.5]];portConstraint=eastwest;whiteSpace=wrap;html=1;" vertex="1" parent="6Z-fEolWgcH76Msf51tz-8">
          <mxGeometry y="26" width="200" height="18" as="geometry" />
        </mxCell>
        <mxCell id="6Z-fEolWgcH76Msf51tz-10" value="" style="line;strokeWidth=1;fillColor=none;align=left;verticalAlign=middle;spacingTop=-1;spacingLeft=3;spacingRight=3;rotatable=0;labelPosition=right;points=[];portConstraint=eastwest;strokeColor=inherit;" vertex="1" parent="6Z-fEolWgcH76Msf51tz-8">
          <mxGeometry y="44" width="200" height="8" as="geometry" />
        </mxCell>
        <mxCell id="6Z-fEolWgcH76Msf51tz-11" value="&lt;div&gt;+ Profesor(ManejoReclamo sig)&lt;/div&gt;&lt;div&gt;&amp;nbsp;+ getManejo(int dias)&lt;/div&gt;" style="text;strokeColor=none;fillColor=none;align=left;verticalAlign=top;spacingLeft=4;spacingRight=4;overflow=hidden;rotatable=0;points=[[0,0.5],[1,0.5]];portConstraint=eastwest;whiteSpace=wrap;html=1;" vertex="1" parent="6Z-fEolWgcH76Msf51tz-8">
          <mxGeometry y="52" width="200" height="40" as="geometry" />
        </mxCell>
        <mxCell id="6Z-fEolWgcH76Msf51tz-12" value="Rectoria" style="swimlane;fontStyle=1;align=center;verticalAlign=top;childLayout=stackLayout;horizontal=1;startSize=26;horizontalStack=0;resizeParent=1;resizeParentMax=0;resizeLast=0;collapsible=1;marginBottom=0;whiteSpace=wrap;html=1;" vertex="1" parent="WIyWlLk6GJQsqaUBKTNV-1">
          <mxGeometry x="750" y="251" width="200" height="92" as="geometry" />
        </mxCell>
        <mxCell id="6Z-fEolWgcH76Msf51tz-13" value="- DIAS_LIMITE : int =35" style="text;strokeColor=none;fillColor=none;align=left;verticalAlign=top;spacingLeft=4;spacingRight=4;overflow=hidden;rotatable=0;points=[[0,0.5],[1,0.5]];portConstraint=eastwest;whiteSpace=wrap;html=1;" vertex="1" parent="6Z-fEolWgcH76Msf51tz-12">
          <mxGeometry y="26" width="200" height="18" as="geometry" />
        </mxCell>
        <mxCell id="6Z-fEolWgcH76Msf51tz-14" value="" style="line;strokeWidth=1;fillColor=none;align=left;verticalAlign=middle;spacingTop=-1;spacingLeft=3;spacingRight=3;rotatable=0;labelPosition=right;points=[];portConstraint=eastwest;strokeColor=inherit;" vertex="1" parent="6Z-fEolWgcH76Msf51tz-12">
          <mxGeometry y="44" width="200" height="8" as="geometry" />
        </mxCell>
        <mxCell id="6Z-fEolWgcH76Msf51tz-15" value="&lt;div&gt;+ Profesor(ManejoReclamo sig)&lt;/div&gt;&lt;div&gt;&amp;nbsp;+ getManejo(int dias)&lt;/div&gt;" style="text;strokeColor=none;fillColor=none;align=left;verticalAlign=top;spacingLeft=4;spacingRight=4;overflow=hidden;rotatable=0;points=[[0,0.5],[1,0.5]];portConstraint=eastwest;whiteSpace=wrap;html=1;" vertex="1" parent="6Z-fEolWgcH76Msf51tz-12">
          <mxGeometry y="52" width="200" height="40" as="geometry" />
        </mxCell>
        <mxCell id="6Z-fEolWgcH76Msf51tz-20" value="&lt;p style=&quot;margin: 4px 0px 0px; text-align: center;&quot;&gt;&lt;b&gt;ManejoReclamo&lt;/b&gt;&lt;/p&gt;&lt;p style=&quot;margin: 4px 0px 0px; text-align: center;&quot;&gt;&amp;lt;&amp;lt;Interface&amp;gt;&amp;gt;&lt;/p&gt;&lt;hr size=&quot;1&quot; style=&quot;border-style:solid;&quot;&gt;&lt;p style=&quot;margin:0px;margin-left:8px;&quot;&gt;+ {abstract} getManejo(int dias)&lt;/p&gt;" style="verticalAlign=top;align=left;overflow=fill;html=1;whiteSpace=wrap;" vertex="1" parent="WIyWlLk6GJQsqaUBKTNV-1">
          <mxGeometry x="390" y="110" width="230" height="70" as="geometry" />
        </mxCell>
        <mxCell id="6Z-fEolWgcH76Msf51tz-21" value="&lt;p style=&quot;margin: 4px 0px 0px; text-align: center;&quot;&gt;&lt;b&gt;ReclamosUniversitarios&lt;/b&gt;&lt;/p&gt;&lt;hr size=&quot;1&quot; style=&quot;border-style:solid;&quot;&gt;&lt;p style=&quot;margin:0px;margin-left:8px;&quot;&gt;+ main(String[] args)&lt;/p&gt;&lt;p style=&quot;margin:0px;margin-left:8px;&quot;&gt;&lt;span style=&quot;background-color: transparent; color: light-dark(rgb(0, 0, 0), rgb(255, 255, 255));&quot;&gt;+ procesarReclamo(ManejoReclamo inicioCadena)&lt;/span&gt;&lt;/p&gt;" style="verticalAlign=top;align=left;overflow=fill;html=1;whiteSpace=wrap;" vertex="1" parent="WIyWlLk6GJQsqaUBKTNV-1">
          <mxGeometry x="350" y="-10" width="290" height="70" as="geometry" />
        </mxCell>
      </root>
    </mxGraphModel>
  </diagram>
</mxfile>
